<?xml version="1.0" encoding="UTF-8"?><svg xmlns="http://www.w3.org/2000/svg" viewBox="0 0 1223.68 782.07"><defs><style>.d,.e{stroke-miterlimit:10;}.d,.e,.f{stroke:#000;stroke-width:3px;}.d,.f{fill:none;}.g{fill:#ecf6ed;}.h{fill:#8dbccd;}.e{fill:#fff;}.i{fill:#7ebed0;opacity:.3;}.f{stroke-linecap:round;stroke-linejoin:round;}</style></defs><g id="a"/><g id="b"><path class="i" d="M507.42,520.72h616.26v73.13c0,22.39-18.18,40.57-40.57,40.57H547.99c-22.39,0-40.57-18.18-40.57-40.57v-73.13h0Z"/><polygon class="g" points="711.03 520.02 505.35 198.81 391.88 337 334.39 280.81 105.23 519.33 347.49 519.33 347.34 520.02 711.03 520.02"/><rect class="e" x="505.04" y="360.75" width="302.69" height="159.27"/><rect class="d" x="518.82" y="375.13" width="184.92" height="144.89"/><line class="d" x1="600.48" y1="506.28" x2="622.07" y2="506.28"/><line class="d" x1="532.22" y1="387.25" x2="690.33" y2="387.25"/><line class="d" x1="532.22" y1="404.16" x2="690.33" y2="404.16"/><line class="d" x1="532.22" y1="421.06" x2="690.33" y2="421.06"/><line class="d" x1="532.22" y1="437.97" x2="690.33" y2="437.97"/><line class="d" x1="532.22" y1="454.88" x2="690.33" y2="454.88"/><line class="d" x1="532.22" y1="471.79" x2="690.33" y2="471.79"/><line class="d" x1="532.22" y1="488.69" x2="690.33" y2="488.69"/><rect class="e" x="276.96" y="190.29" width="33.09" height="67.1"/><polygon class="e" points="237.83 268.54 237.83 520.02 504.93 520.02 504.93 159.87 237.83 268.54"/><rect class="e" x="205.34" y="209.78" width="332.08" height="8.85" transform="translate(-53.34 155.72) rotate(-22.14)"/><rect class="d" x="276.96" y="421.06" width="66.19" height="98.96"/><rect class="d" x="396.49" y="411.09" width="69.63" height="67.91"/><rect class="d" x="396.49" y="292.84" width="69.63" height="67.91"/><rect class="d" x="276.96" y="292.84" width="69.63" height="67.91"/><line class="d" x1="311.78" y1="292.84" x2="311.78" y2="360.75"/><line class="d" x1="345.73" y1="326.8" x2="277.82" y2="326.8"/><rect class="d" x="396.49" y="292.84" width="69.63" height="67.91"/><line class="d" x1="431.3" y1="292.84" x2="431.3" y2="360.75"/><line class="d" x1="465.25" y1="326.8" x2="397.35" y2="326.8"/><rect class="d" x="396.49" y="411.09" width="69.63" height="67.91"/><rect class="d" x="396.49" y="411.09" width="69.63" height="67.91"/><line class="d" x1="431.3" y1="411.09" x2="431.3" y2="479"/><line class="d" x1="465.25" y1="445.05" x2="397.35" y2="445.05"/><rect class="d" x="269.46" y="360.75" width="84.64" height="6.67"/><rect class="d" x="388.98" y="360.75" width="84.64" height="6.67"/><rect class="d" x="388.98" y="479" width="84.64" height="6.67"/><circle class="d" cx="328.74" cy="474.2" r="4.8"/><circle class="e" cx="757.46" cy="409.64" r="30.78"/><path class="h" d="M761.73,381.77c-17,0-30.78,13.78-30.78,30.78s13.78,30.78,30.78,30.78,30.78-13.78,30.78-30.78-13.78-30.78-30.78-30.78Zm-.47,49.81l-1.47-14.9-7.36-2.36,9.77-20.81,1.47,14.9,7.36,2.36-9.77,20.81Z"/><polygon class="f" points="756.99 428.68 766.76 407.86 759.4 405.5 757.93 390.61 748.16 411.42 755.51 413.78 756.99 428.68"/></g><g id="c"/></svg>