<?xml version="1.0" encoding="UTF-8"?><svg xmlns="http://www.w3.org/2000/svg" xmlns:xlink="http://www.w3.org/1999/xlink" viewBox="0 0 875.81 782.07"><defs><style>.f,.g{fill:none;}.h{fill:#8cbacc;}.i{fill:#dfecf0;}.j{clip-path:url(#c);}.k{clip-path:url(#d);}.l{stroke-miterlimit:10;}.l,.m{fill:#fff;}.l,.m,.g{stroke:#000;stroke-width:3px;}.m,.g{stroke-linecap:round;stroke-linejoin:round;}.n{fill:#c9e5ca;opacity:.3;}</style><clipPath id="c"><circle class="f" cx="1515.27" cy="-95.26" r="323.86"/></clipPath><clipPath id="d"><rect class="f" x="-952.17" y="391.04" width="875.81" height="782.07"/></clipPath></defs><g id="a"/><g id="b"><g class="j"><rect class="l" x="549.87" y="-20.97" width="146.49" height="60.85"/><rect class="l" x="696.36" y="-20.97" width="146.49" height="60.85"/><rect class="l" x="842.84" y="-20.97" width="146.49" height="60.85"/><rect class="l" x="476.63" y="39.88" width="146.49" height="60.85"/><rect class="l" x="623.11" y="39.88" width="146.49" height="60.85"/><rect class="l" x="769.6" y="39.88" width="146.49" height="60.85"/><rect class="l" x="549.87" y="100.73" width="146.49" height="60.85"/><rect class="l" x="696.36" y="100.73" width="146.49" height="60.85"/><rect class="l" x="842.84" y="100.73" width="146.49" height="60.85"/><rect class="l" x="476.63" y="161.58" width="146.49" height="60.85"/><rect class="l" x="623.11" y="161.58" width="146.49" height="60.85"/><rect class="l" x="769.6" y="161.58" width="146.49" height="60.85"/><rect class="l" x="549.87" y="222.43" width="146.49" height="60.85"/><rect class="l" x="696.36" y="222.43" width="146.49" height="60.85"/><rect class="l" x="842.84" y="222.43" width="146.49" height="60.85"/><rect class="l" x="476.63" y="283.27" width="146.49" height="60.85"/><rect class="l" x="623.11" y="283.27" width="146.49" height="60.85"/><rect class="l" x="769.6" y="283.27" width="146.49" height="60.85"/><rect class="l" x="549.87" y="344.12" width="146.49" height="60.85"/><rect class="l" x="696.36" y="344.12" width="146.49" height="60.85"/><rect class="l" x="842.84" y="344.12" width="146.49" height="60.85"/></g><path class="i" d="M741.6,668.88c0,10.67-.52,21.2-1.57,31.6H110.39c-1.05-10.4-1.57-20.94-1.57-31.6,0-174.74,141.66-316.4,316.38-316.4s316.4,141.66,316.4,316.4Z"/><g><rect class="m" x="392.31" y="636.59" width="63.89" height="63.89" rx="10.9" ry="10.9"/><rect class="m" x="566.05" y="636.59" width="63.89" height="63.89" rx="10.9" ry="10.9"/><rect class="m" x="566.05" y="636.59" width="41.59" height="63.89" rx="10.9" ry="10.9"/><rect class="m" x="212.44" y="636.59" width="63.89" height="63.89" rx="10.9" ry="10.9"/><path class="m" d="M660.44,595.98v58.55H192.83v-61.67c0-10.91,1.35-21.77,4-32.35l3.9-15.54,8.44-33.64c6.99-27.88,32.05-47.43,60.79-47.43h227.95c22.53,0,43.33,12.09,54.47,31.68l28.12,49.39,57.55,19.68c13.39,4.59,22.39,17.17,22.39,31.32Z"/><rect class="m" x="174.95" y="642.65" width="500.52" height="23.78" rx="6.24" ry="6.24"/><rect class="m" x="392.31" y="636.59" width="41.59" height="63.89" rx="10.9" ry="10.9"/><rect class="m" x="212.44" y="636.59" width="41.59" height="63.89" rx="10.9" ry="10.9"/><g><rect class="m" x="493.7" y="592.26" width="35.13" height="20.35" rx="5.34" ry="5.34"/><rect class="m" x="636.27" y="592.26" width="35.13" height="20.35" rx="5.34" ry="5.34" transform="translate(1307.67 1204.87) rotate(180)"/></g><path class="m" d="M451.1,453.75c-3.87-4.64-9.61-7.32-15.65-7.32h-22.37c-6.04,0-11.78,2.68-15.65,7.32l-8.48,10.16h70.63l-8.48-10.16Z"/><rect class="m" x="539.54" y="592.42" width="86.01" height="28.95" rx="7.59" ry="7.59"/><path class="m" d="M552.39,495.59c-11.14-19.58-31.94-31.68-54.47-31.68h-227.95c-28.74,0-53.8,19.55-60.79,47.43l-8.44,33.64h379.77l-28.12-49.39Z"/><path class="g" d="M453.88,544.98l-29.44-51.71c-10.33-18.15-29.61-29.36-50.49-29.36h-21.86"/><line class="m" x1="314.32" y1="463.91" x2="314.32" y2="544.98"/></g><path class="h" d="M488.69,142.32c-.77-.71-1.58-1.37-2.44-1.95-15.26-10.43-33.04-15.93-51.52-15.93-26.93,0-52.33,11.76-69.69,32.27-32.49,38.27-27.74,95.87,10.59,128.41,16.1,13.66,36.77,21.18,58.21,21.18,22.88,0,43.78-7.79,60.6-22.46l.04,.02c.19-.15,.33-.33,.51-.49,.12-.1,.24-.2,.35-.3h0l-.02-.02c3.71-3.68,4.06-9.53,.86-13.59-10.32-13.08-28.34-10.92-44.98-5.46h0s-.09,.02-.13,.04c-.04,.01-.08,.02-.12,.04-4.94,1.43-10.03,2.15-15.13,2.15-11.98,0-23.16-3.9-32.35-11.28-18.94-15.42-24.76-42.56-13.86-64.55,9-17.9,27.04-28.99,47.09-28.99h0c8.15,0,16.32,1.93,23.65,5.59l.95,.47,1.36,.69,.62,.57c.61,.58,.66,1.74,.11,2.32l-5.94,6.17c-.69,.72-1.23,1.58-1.04,2.59,.08,1.74,1.58,2.91,3.32,2.92l17.04-1.02,18.78-1.01c3.46-.26,6.22-3.13,6.35-6.6l.28-18.8,.37-17.07c-.05-1.16-.52-1.89-1.28-2.61-1.5-1.17-3.52-.9-4.47,.4l-5.94,6.17c-.55,.57-1.56,.71-2.17,.13h0Z"/><g class="k"><g><g><polygon class="n" points="-116.41 325.77 -116.7 412.45 88.56 412.45 106.77 325.77 -116.41 325.77"/><path class="n" d="M-148.33,695.11H29.16l55.98-266.4H-116.76l-.69,204.27c-.09,25.28-12.2,47.79-30.89,62.14Z"/></g><polygon class="n" points="-194.24 711.37 -194.24 885.71 -10.88 885.71 25.75 711.37 -194.24 711.37"/></g></g></g><g id="e"/></svg>