<?xml version="1.0" encoding="utf-8"?>
<!-- Generator: Adobe Illustrator 26.3.1, SVG Export Plug-In . SVG Version: 6.00 Build 0)  -->
<svg version="1.1" id="Layer_1" xmlns="http://www.w3.org/2000/svg" xmlns:xlink="http://www.w3.org/1999/xlink" x="0px" y="0px"
	 viewBox="0 0 1223.7 782.1" style="enable-background:new 0 0 1223.7 782.1;" xml:space="preserve">
<style type="text/css">
	.st0{opacity:0.3;fill:#7EBED0;enable-background:new    ;}
	.st1{fill:#ECF6ED;}
	.st2{fill:#FFFFFF;stroke:#000000;stroke-width:3;stroke-miterlimit:10;}
	.st3{fill:none;stroke:#000000;stroke-width:3;stroke-miterlimit:10;}
	.st4{fill:#8DBCCD;}
	.st5{fill:none;stroke:#EDD261;stroke-width:5;stroke-miterlimit:10;}
	.st6{fill:#FFFFFF;stroke:#000000;stroke-width:3;stroke-linecap:round;stroke-linejoin:round;}
	.st7{fill:none;stroke:#000000;stroke-width:3;stroke-linecap:round;stroke-linejoin:round;}
</style>
<g id="b">
	<path class="st0" d="M507.4,520.7h616.3v73.1c0,22.4-18.2,40.6-40.6,40.6H548c-22.4,0-40.6-18.2-40.6-40.6L507.4,520.7L507.4,520.7
		L507.4,520.7z"/>
	<polygon class="st1" points="711,520 505.4,198.8 391.9,337 334.4,280.8 105.2,519.3 347.5,519.3 347.3,520 	"/>
	<rect x="505" y="360.8" class="st2" width="302.7" height="159.3"/>
	<rect x="518.8" y="375.1" class="st3" width="184.9" height="144.9"/>
	<line class="st3" x1="600.5" y1="506.3" x2="622.1" y2="506.3"/>
	<line class="st3" x1="532.2" y1="387.2" x2="690.3" y2="387.2"/>
	<line class="st3" x1="532.2" y1="404.2" x2="690.3" y2="404.2"/>
	<line class="st3" x1="532.2" y1="421.1" x2="690.3" y2="421.1"/>
	<line class="st3" x1="532.2" y1="438" x2="690.3" y2="438"/>
	<line class="st3" x1="532.2" y1="454.9" x2="690.3" y2="454.9"/>
	<line class="st3" x1="532.2" y1="471.8" x2="690.3" y2="471.8"/>
	<line class="st3" x1="532.2" y1="488.7" x2="690.3" y2="488.7"/>
	<rect x="277" y="190.3" class="st2" width="33.1" height="67.1"/>
	<polygon class="st2" points="237.8,268.5 237.8,520 504.9,520 504.9,159.9 	"/>
	
		<rect x="205.3" y="209.7" transform="matrix(0.9263 -0.3769 0.3769 0.9263 -53.3301 155.7555)" class="st2" width="332.1" height="8.9"/>
	<rect x="277" y="421.1" class="st3" width="66.2" height="99"/>
	<rect x="396.5" y="411.1" class="st3" width="69.6" height="67.9"/>
	<rect x="396.5" y="292.8" class="st3" width="69.6" height="67.9"/>
	<rect x="277" y="292.8" class="st3" width="69.6" height="67.9"/>
	<line class="st3" x1="311.8" y1="292.8" x2="311.8" y2="360.8"/>
	<line class="st3" x1="345.7" y1="326.8" x2="277.8" y2="326.8"/>
	<rect x="396.5" y="292.8" class="st3" width="69.6" height="67.9"/>
	<line class="st3" x1="431.3" y1="292.8" x2="431.3" y2="360.8"/>
	<line class="st3" x1="465.2" y1="326.8" x2="397.4" y2="326.8"/>
	<rect x="396.5" y="411.1" class="st3" width="69.6" height="67.9"/>
	<rect x="396.5" y="411.1" class="st3" width="69.6" height="67.9"/>
	<line class="st3" x1="431.3" y1="411.1" x2="431.3" y2="479"/>
	<line class="st3" x1="465.2" y1="445" x2="397.4" y2="445"/>
	<rect x="269.5" y="360.8" class="st3" width="84.6" height="6.7"/>
	<rect x="389" y="360.8" class="st3" width="84.6" height="6.7"/>
	<rect x="389" y="479" class="st3" width="84.6" height="6.7"/>
	<circle class="st3" cx="328.7" cy="474.2" r="4.8"/>
	<circle class="st2" cx="757.5" cy="409.6" r="30.8"/>
	<path class="st4" d="M761.7,381.8c-17,0-30.8,13.8-30.8,30.8s13.8,30.8,30.8,30.8s30.8-13.8,30.8-30.8S778.7,381.8,761.7,381.8z
		 M761.3,431.6l-1.5-14.9l-7.4-2.4l9.8-20.8l1.5,14.9l7.4,2.4L761.3,431.6z"/>
	<path class="st5" d="M788.2,409.6h19.8c12.9,0,23.3,10.4,23.3,23.3v88.2c0,12.9,10.4,23.3,23.3,23.3h8.2"/>
	<g>
		<path class="st6" d="M980.7,612.3H969c-6,0-10.9-4.9-10.9-10.9v-11.7c0-6,4.9-10.9,10.9-10.9h11.7c6,0,10.9,4.9,10.9,10.9v11.7
			C991.6,607.4,986.7,612.3,980.7,612.3z"/>
		<path class="st6" d="M889.8,612.3h-11.7c-6,0-10.9-4.9-10.9-10.9v-11.7c0-6,4.9-10.9,10.9-10.9h11.7c6,0,10.9,4.9,10.9,10.9v11.7
			C900.6,607.4,895.8,612.3,889.8,612.3z"/>
		<path class="st6" d="M889.8,612.3L889.8,612.3c-6,0-10.9-4.9-10.9-10.9v-11.7c0-6,4.9-10.9,10.9-10.9h0c6,0,10.9,4.9,10.9,10.9
			v11.7C900.6,607.4,895.8,612.3,889.8,612.3z"/>
		<path class="st6" d="M1074.9,612.3h-11.7c-6,0-10.9-4.9-10.9-10.9v-11.7c0-6,4.9-10.9,10.9-10.9h11.7c6,0,10.9,4.9,10.9,10.9v11.7
			C1085.8,607.4,1080.9,612.3,1074.9,612.3z"/>
		<path class="st6" d="M851.2,557.6v30.7H1096v-32.3c0-5.7-0.7-11.4-2.1-16.9l-2-8.1l-4.4-17.6c-3.7-14.6-16.8-24.8-31.8-24.8H936.3
			c-11.8,0-22.7,6.3-28.5,16.6l-14.7,25.8L863,541.2C855.9,543.6,851.2,550.2,851.2,557.6L851.2,557.6z"/>
		<path class="st6" d="M1099.2,594.4H849.6c-3.4,0-6.2-2.8-6.2-6.2v0c0-3.4,2.8-6.2,6.2-6.2h249.6c3.4,0,6.2,2.8,6.2,6.2v0
			C1105.4,591.7,1102.6,594.4,1099.2,594.4z"/>
		<path class="st6" d="M980.7,612.3L980.7,612.3c-6,0-10.9-4.9-10.9-10.9v-11.7c0-6,4.9-10.9,10.9-10.9h0c6,0,10.9,4.9,10.9,10.9
			v11.7C991.6,607.4,986.7,612.3,980.7,612.3z"/>
		<path class="st6" d="M1074.9,612.3L1074.9,612.3c-6,0-10.9-4.9-10.9-10.9v-11.7c0-6,4.9-10.9,10.9-10.9h0c6,0,10.9,4.9,10.9,10.9
			v11.7C1085.8,607.4,1080.9,612.3,1074.9,612.3z"/>
		<g>
			<path class="st6" d="M933.2,566.3h-7.7c-2.9,0-5.3-2.4-5.3-5.3l0,0c0-2.9,2.4-5.3,5.3-5.3h7.7c2.9,0,5.3,2.4,5.3,5.3l0,0
				C938.5,563.9,936.1,566.3,933.2,566.3z"/>
			<path class="st6" d="M850.8,555.6h7.7c2.9,0,5.3,2.4,5.3,5.3l0,0c0,2.9-2.4,5.3-5.3,5.3h-7.7c-2.9,0-5.3-2.4-5.3-5.3l0,0
				C845.5,558,847.9,555.6,850.8,555.6z"/>
		</g>
		<path class="st6" d="M960.8,483.1c2-2.4,5-3.8,8.2-3.8h11.7c3.2,0,6.2,1.4,8.2,3.8l4.4,5.3h-37L960.8,483.1z"/>
		<path class="st6" d="M906.9,570.9h-29.9c-4.2,0-7.6-3.4-7.6-7.6v0c0-4.2,3.4-7.6,7.6-7.6h29.9c4.2,0,7.6,3.4,7.6,7.6v0
			C914.5,567.5,911.1,570.9,906.9,570.9z"/>
		<path class="st6" d="M907.8,505c5.8-10.2,16.7-16.6,28.5-16.6h119.3c15.1,0,28.2,10.2,31.8,24.8l4.4,17.6H893.1L907.8,505
			L907.8,505z"/>
		<path class="st7" d="M959.4,530.9l15.4-27.1c5.4-9.5,15.5-15.4,26.4-15.4h11.4"/>
		<line class="st7" x1="1032.4" y1="488.4" x2="1032.4" y2="530.9"/>
	</g>
	<polygon class="st7" points="757,428.7 766.8,407.9 759.4,405.5 757.9,390.6 748.2,411.4 755.5,413.8 	"/>
</g>
<g id="c">
</g>
</svg>
